<?xml version="1.0" encoding="UTF-8"?>
<!DOCTYPE svg PUBLIC "-//W3C//DTD SVG 1.1//EN" "http://www.w3.org/Graphics/SVG/1.1/DTD/svg11.dtd">
<!-- Creator: CorelDRAW X8 -->
<svg xmlns="http://www.w3.org/2000/svg" xml:space="preserve" width="100mm" height="70.7071mm" version="1.1" style="shape-rendering:geometricPrecision; text-rendering:geometricPrecision; image-rendering:optimizeQuality; fill-rule:evenodd; clip-rule:evenodd"
viewBox="0 0 10000 7071"
 xmlns:xlink="http://www.w3.org/1999/xlink">
 <defs>
  <style type="text/css">
   <![CDATA[
    .str0 {stroke:#373435;stroke-width:5.93603}
    .fil3 {fill:#FEFEFE}
    .fil0 {fill:#0075B4}
    .fil1 {fill:#DA9600}
    .fil2 {fill:#373435;fill-rule:nonzero}
   ]]>
  </style>
 </defs>
 <g id="Camada_x0020_1">
  <metadata id="CorelCorpID_0Corel-Layer"/>
  <g id="_2238129129520">
   <g>
    <path class="fil0" d="M1959 3342c0,-610 191,-1115 573,-1544l265 -264c62,-57 243,-172 318,-212 466,-242 1002,-277 1498,-105 582,202 855,736 855,1419l0 294 98 0 -505 476c-56,56 -99,130 -181,152 -112,-75 -190,-201 -299,-309l-289 -319 137 0c0,-104 20,-113 20,-196 0,-791 -1148,-1071 -1799,-466 -403,375 -475,580 -664,1022 -3,6 -11,22 -13,27l-14 25zm1952 -2392l236 0c550,32 1044,287 1276,751 182,365 202,542 202,1072l353 0 -1078 1013c-90,20 -16,11 -59,-5l-459 -509c-121,-157 -330,-331 -443,-499l333 0c0,-343 -172,-547 -517,-638 -634,-168 -1190,332 -1430,808 -68,134 -126,242 -178,391 -179,516 -121,519 80,857 227,381 493,626 861,845 470,281 1380,329 1871,76 149,-35 267,-94 363,-182 35,0 29,10 29,-20l19 -19c119,-32 418,-320 499,-423 181,-233 213,-249 370,-532 273,-491 347,-887 347,-1457l-334 0c94,-140 491,-462 643,-612l377 -368c87,58 404,386 479,482 126,163 433,388 462,498l-314 0c0,454 -44,794 -159,1135 -309,917 -822,1699 -1703,2159 -956,499 -2340,503 -3261,-269l-303 -324c-272,-332 -506,-757 -576,-1208 -7,-45 -12,-75 -24,-132 -22,-96 -41,-153 -60,-254 -90,-486 59,-1122 326,-1534 163,-252 358,-498 598,-676 353,-263 770,-403 1174,-426z"/>
    <path class="fil1" d="M4959 5112c149,-35 267,-94 363,-182l29 -20 19 -19c129,-193 229,-446 92,-720 -46,-92 -137,-192 -217,-253 -117,-88 -193,-92 -345,-132 -90,20 -16,11 -59,-5 -186,69 -424,60 -589,423 -151,333 31,747 385,871 130,46 173,21 322,37z"/>
    <path class="fil2 str0" d="M2302 3971l178 -666 38 0 90 0 -178 666 -38 0 -90 0 0 0zm232 0l154 -576c4,-14 9,-27 17,-38 8,-11 16,-21 27,-29 7,-5 14,-10 21,-13 7,-4 15,-6 22,-8 4,-2 8,-3 11,-3 4,-1 7,-1 11,-1l38 -1c8,1 16,2 23,4 7,2 14,6 20,11 6,5 11,10 15,17 4,7 6,15 8,25l85 405 123 -459 38 0 89 0 -166 621c-3,11 -7,20 -12,28 -5,7 -12,13 -18,17 -4,2 -8,4 -12,6 -5,2 -8,3 -12,4 -4,1 -8,2 -12,2 -4,1 -8,1 -12,1l-38 0 -6 0 -4 -1c-7,0 -14,-2 -20,-4 -7,-2 -13,-5 -19,-8 -6,-3 -10,-6 -13,-11 -3,-5 -5,-10 -6,-17l-94 -432 -122 460 -38 0 -98 0 0 0zm621 0l120 -449c10,-34 24,-66 42,-94 19,-28 42,-53 70,-74 28,-21 56,-36 84,-47 28,-10 56,-16 84,-16l38 0c5,0 11,1 17,1 5,1 11,2 17,3 6,2 11,3 17,5 6,2 12,4 18,6 17,7 33,16 47,28 14,12 27,27 38,44 10,17 17,37 19,58 2,22 0,46 -7,73 -8,29 -19,55 -32,78 -14,23 -30,42 -50,59 -19,16 -38,29 -57,40 -19,11 -37,20 -56,25 -5,1 -10,2 -15,3 -4,1 -9,2 -13,2 -5,1 -10,1 -15,2 -4,0 -9,0 -13,0l-38 -1 -127 -1 22 -81 38 0 80 0c14,-1 27,-3 38,-6 11,-3 21,-8 29,-14 11,-7 20,-15 29,-23 8,-8 16,-17 21,-26 3,-5 6,-10 9,-16 2,-5 5,-10 6,-15 1,-2 2,-4 2,-5 0,-1 1,-3 1,-5 2,-2 3,-5 4,-8 1,-3 1,-5 2,-8 1,-3 2,-7 2,-10 1,-4 1,-8 2,-13 0,-4 1,-9 1,-13 0,-4 0,-9 0,-13 -2,-10 -4,-19 -8,-28 -4,-9 -9,-17 -16,-26 -6,-7 -13,-12 -22,-16 -10,-4 -21,-7 -34,-7 -23,2 -43,7 -59,16 -17,9 -31,21 -41,36 -12,18 -23,37 -32,58 -9,22 -17,44 -24,68l-109 410 -38 0 -91 0 0 0zm583 -329c15,-44 32,-83 52,-118 20,-34 43,-62 69,-85 26,-23 52,-43 78,-59 26,-16 51,-29 77,-38 18,-7 35,-13 51,-17 17,-4 33,-7 48,-10 16,-2 29,-3 42,-5 12,-2 23,-3 33,-3l59 -2 38 0 -21 82 -53 0c-40,4 -77,10 -111,20 -34,10 -64,24 -90,42 -26,18 -48,37 -67,56 -19,19 -34,39 -45,60 -1,2 -2,4 -3,5 -1,2 -1,3 -1,5 -1,2 -2,3 -3,5 -1,1 -1,3 -2,4l284 -2 38 0 -22 82 -322 0c-1,7 -2,13 -3,20 -2,6 -2,12 -2,19 0,6 1,13 2,19 0,7 1,14 1,21 4,18 11,36 19,53 9,17 21,33 35,49 13,14 28,24 45,32 17,8 35,12 56,13l72 -2 38 0 -22 83 -38 0 -75 0c-3,0 -6,0 -8,0 -3,0 -6,0 -8,0 -4,0 -7,0 -9,0 -3,0 -5,0 -9,0 -5,-1 -11,-1 -16,-2 -6,-1 -11,-2 -16,-3 -33,-7 -63,-19 -90,-37 -27,-18 -52,-40 -72,-67 -22,-28 -35,-60 -40,-96 -5,-36 -1,-77 11,-122l0 -2z"/>
   </g>
   <path class="fil3" d="M4292 2930l289 319c109,108 187,234 299,309 82,-22 125,-96 181,-152l505 -476 -98 0 0 -294c0,-683 -273,-1217 -855,-1419 -496,-172 -1032,-137 -1498,105 -75,40 -256,155 -318,212l-265 264c-382,429 -573,934 -573,1544l14 -25 13 -27c189,-442 261,-647 664,-1022 651,-605 1799,-325 1799,466 0,83 -20,92 -20,196l-137 0z"/>
  </g>
 </g>
</svg>
